<!-- Generated by IcoMoon.io -->
<svg version="1.1" xmlns="http://www.w3.org/2000/svg" width="1024" height="1024" viewBox="0 0 1024 1024">
<title></title>
<g id="icomoon-ignore">
</g>
<path d="M801.28 539.861c-122.965 0-222.72 99.669-222.72 222.72s99.755 222.72 222.72 222.72 222.72-99.84 222.72-222.72-99.669-222.72-222.72-222.72zM222.72 539.861c-122.88 0-222.72 99.712-222.72 222.72s99.755 222.72 222.72 222.72 222.72-99.755 222.72-222.72-99.669-222.72-222.72-222.72zM734.72 261.461c0 123.008-99.712 222.72-222.72 222.72-122.965 0-222.72-99.712-222.72-222.72 0-122.88 99.755-222.72 222.72-222.72 123.008 0 222.72 99.84 222.72 222.72z"></path>
</svg>
