<?xml version="1.0" encoding="UTF-8"?><!DOCTYPE svg PUBLIC "-//W3C//DTD SVG 1.1//EN" "http://www.w3.org/Graphics/SVG/1.1/DTD/svg11.dtd"><svg xmlns="http://www.w3.org/2000/svg"><symbol id="checkmark2" viewBox="0 0 32 32">
<title>checkmark2</title>
<path d="M12.42 28.678l-12.433-12.238 6.168-6.071 6.265 6.167 13.426-13.214 6.168 6.071-19.594 19.285zM3.372 16.441l9.048 8.905 16.208-15.953-2.782-2.739-13.426 13.214-6.265-6.167-2.782 2.739z"/>
</symbol><symbol id="chevron-thin-down" viewBox="0 0 20 20">
<title>chevron-thin-down</title>
<path d="M17.418 6.109c0.272-0.268 0.709-0.268 0.979 0s0.271 0.701 0 0.969l-7.908 7.83c-0.27 0.268-0.707 0.268-0.979 0l-7.908-7.83c-0.27-0.268-0.27-0.701 0-0.969s0.709-0.268 0.979 0l7.419 7.141 7.418-7.141z"/>
</symbol><symbol id="circle" viewBox="0 0 20 20">
<title>circle</title>
<path d="M10 0.4c-5.302 0-9.6 4.298-9.6 9.6s4.298 9.6 9.6 9.6c5.301 0 9.6-4.298 9.6-9.601 0-5.301-4.299-9.599-9.6-9.599zM10 17.599c-4.197 0-7.6-3.402-7.6-7.6s3.402-7.599 7.6-7.599c4.197 0 7.601 3.402 7.601 7.6s-3.404 7.599-7.601 7.599z"/>
</symbol><symbol id="cross" viewBox="0 0 20 20">
<title>cross</title>
<path d="M14.348 14.849c-0.469 0.469-1.229 0.469-1.697 0l-2.651-3.030-2.651 3.029c-0.469 0.469-1.229 0.469-1.697 0-0.469-0.469-0.469-1.229 0-1.697l2.758-3.15-2.759-3.152c-0.469-0.469-0.469-1.228 0-1.697s1.228-0.469 1.697 0l2.652 3.031 2.651-3.031c0.469-0.469 1.228-0.469 1.697 0s0.469 1.229 0 1.697l-2.758 3.152 2.758 3.15c0.469 0.469 0.469 1.229 0 1.698z"/>
</symbol><symbol id="equalizer" viewBox="0 0 32 32">
<title>equalizer</title>
<path d="M14 4v-0.5c0-0.825-0.675-1.5-1.5-1.5h-5c-0.825 0-1.5 0.675-1.5 1.5v0.5h-6v4h6v0.5c0 0.825 0.675 1.5 1.5 1.5h5c0.825 0 1.5-0.675 1.5-1.5v-0.5h18v-4h-18zM8 8v-4h4v4h-4zM26 13.5c0-0.825-0.675-1.5-1.5-1.5h-5c-0.825 0-1.5 0.675-1.5 1.5v0.5h-18v4h18v0.5c0 0.825 0.675 1.5 1.5 1.5h5c0.825 0 1.5-0.675 1.5-1.5v-0.5h6v-4h-6v-0.5zM20 18v-4h4v4h-4zM14 23.5c0-0.825-0.675-1.5-1.5-1.5h-5c-0.825 0-1.5 0.675-1.5 1.5v0.5h-6v4h6v0.5c0 0.825 0.675 1.5 1.5 1.5h5c0.825 0 1.5-0.675 1.5-1.5v-0.5h18v-4h-18v-0.5zM8 28v-4h4v4h-4z"/>
</symbol><symbol id="filled-check" viewBox="0 0 32 32">
<title>if_icon-ios7-checkmark_211715</title>
<path d="M16 3c-7.181 0-13 5.819-13 13s5.819 13 13 13c7.181 0 13-5.819 13-13s-5.819-13-13-13zM13.994 20.606c-0.15 0.15-0.363 0.275-0.55 0.275s-0.4-0.131-0.556-0.281l-3.5-3.5 1.113-1.113 2.95 2.95 7.8-7.856 1.094 1.131-8.35 8.394z"/>
</symbol><symbol id="grid" viewBox="0 0 20 20">
<title>grid</title>
<path d="M8 4h-3c-0.553 0-1 0.447-1 1v3c0 0.552 0.447 1 1 1h3c0.553 0 1-0.448 1-1v-3c0-0.552-0.447-1-1-1zM15 4h-3c-0.553 0-1 0.447-1 1v3c0 0.552 0.447 1 1 1h3c0.553 0 1-0.448 1-1v-3c0-0.552-0.447-1-1-1zM8 11h-3c-0.553 0-1 0.447-1 1v3c0 0.552 0.447 1 1 1h3c0.553 0 1-0.448 1-1v-3c0-0.552-0.447-1-1-1zM15 11h-3c-0.553 0-1 0.447-1 1v3c0 0.552 0.447 1 1 1h3c0.553 0 1-0.448 1-1v-3c0-0.552-0.447-1-1-1z"/>
</symbol><symbol id="heart-outlined" viewBox="0 0 20 20">
<title>heart-outlined</title>
<path d="M17.19 4.156c-1.672-1.535-4.383-1.535-6.055 0l-1.135 1.041-1.136-1.041c-1.672-1.535-4.382-1.535-6.054 0-1.881 1.726-1.881 4.519 0 6.245l7.19 6.599 7.19-6.599c1.88-1.726 1.88-4.52 0-6.245zM16.124 9.375l-6.124 5.715-6.125-5.715c-0.617-0.567-0.856-1.307-0.856-2.094s0.138-1.433 0.756-1.999c0.545-0.501 1.278-0.777 2.063-0.777s1.517 0.476 2.062 0.978l2.1 1.825 2.099-1.826c0.546-0.502 1.278-0.978 2.063-0.978s1.518 0.276 2.063 0.777c0.618 0.566 0.755 1.212 0.755 1.999s-0.238 1.528-0.856 2.095z"/>
</symbol><symbol id="heart" viewBox="0 0 20 20">
<title>heart</title>
<path d="M17.19 4.155c-1.672-1.534-4.383-1.534-6.055 0l-1.135 1.042-1.136-1.042c-1.672-1.534-4.382-1.534-6.054 0-1.881 1.727-1.881 4.52 0 6.246l7.19 6.599 7.19-6.599c1.88-1.726 1.88-4.52 0-6.246z"/>
</symbol><symbol id="text" viewBox="0 0 20 20">
<title>text</title>
<path d="M15.5 11h-11c-0.275 0-0.5 0.225-0.5 0.5v1c0 0.276 0.225 0.5 0.5 0.5h11c0.276 0 0.5-0.224 0.5-0.5v-1c0-0.275-0.224-0.5-0.5-0.5zM15.5 7h-11c-0.275 0-0.5 0.225-0.5 0.5v1c0 0.276 0.225 0.5 0.5 0.5h11c0.276 0 0.5-0.224 0.5-0.5v-1c0-0.275-0.224-0.5-0.5-0.5zM10.5 15h-6c-0.275 0-0.5 0.225-0.5 0.5v1c0 0.276 0.225 0.5 0.5 0.5h6c0.276 0 0.5-0.224 0.5-0.5v-1c0-0.275-0.224-0.5-0.5-0.5zM15.5 3h-11c-0.275 0-0.5 0.225-0.5 0.5v1c0 0.276 0.225 0.5 0.5 0.5h11c0.276 0 0.5-0.224 0.5-0.5v-1c0-0.275-0.224-0.5-0.5-0.5z"/>
</symbol><symbol id="unfilled-check" viewBox="0 0 32 32">
<title>if_icon-ios7-checkmark-outline_211714</title>
<path d="M21.256 11.081l-7.8 7.856-2.95-2.95-1.113 1.113 3.5 3.5c0.156 0.156 0.369 0.281 0.556 0.281s0.394-0.125 0.55-0.275l8.356-8.4-1.1-1.125z"/>
<path d="M16 3c-7.181 0-13 5.819-13 13s5.819 13 13 13c7.181 0 13-5.819 13-13s-5.819-13-13-13zM16 27.919c-6.569 0-11.919-5.344-11.919-11.919 0-6.569 5.344-11.919 11.919-11.919 6.569 0 11.919 5.344 11.919 11.919 0 6.569-5.35 11.919-11.919 11.919z"/>
</symbol></svg>